<mxfile host="app.diagrams.net" modified="2021-06-05T04:50:58.769Z" agent="5.0 (Macintosh; Intel Mac OS X 10_15_7) AppleWebKit/537.36 (KHTML, like Gecko) Chrome/86.0.4240.193 Safari/537.36" etag="v_43LigUgxuXNfaikZdw" version="14.7.3" type="github">
  <diagram id="WQQrYoJ7RVG2PH1tdCos" name="Page-1">
    <mxGraphModel dx="946" dy="536" grid="1" gridSize="10" guides="1" tooltips="1" connect="1" arrows="1" fold="1" page="1" pageScale="1" pageWidth="827" pageHeight="1169" math="0" shadow="0">
      <root>
        <mxCell id="0" />
        <mxCell id="1" parent="0" />
        <mxCell id="C86tbTPObmx0UTZUsj4c-1" value="&lt;span&gt;一个int，4字节&lt;/span&gt;" style="rounded=1;whiteSpace=wrap;html=1;fillColor=#ffe6cc;strokeColor=#d79b00;" vertex="1" parent="1">
          <mxGeometry x="150" y="180" width="120" height="60" as="geometry" />
        </mxCell>
        <mxCell id="C86tbTPObmx0UTZUsj4c-2" value="" style="rounded=1;whiteSpace=wrap;html=1;fillColor=#dae8fc;strokeColor=#6c8ebf;" vertex="1" parent="1">
          <mxGeometry x="270" y="180" width="150" height="60" as="geometry" />
        </mxCell>
        <mxCell id="C86tbTPObmx0UTZUsj4c-3" value="" style="shape=curlyBracket;whiteSpace=wrap;html=1;rounded=1;rotation=-90;" vertex="1" parent="1">
          <mxGeometry x="200" y="210" width="20" height="120" as="geometry" />
        </mxCell>
        <mxCell id="C86tbTPObmx0UTZUsj4c-6" value="消息头&lt;br&gt;保存消息体的长度" style="text;html=1;strokeColor=none;fillColor=none;align=center;verticalAlign=middle;whiteSpace=wrap;rounded=0;" vertex="1" parent="1">
          <mxGeometry x="150" y="300" width="120" height="20" as="geometry" />
        </mxCell>
        <mxCell id="C86tbTPObmx0UTZUsj4c-7" value="" style="shape=curlyBracket;whiteSpace=wrap;html=1;rounded=1;rotation=-90;" vertex="1" parent="1">
          <mxGeometry x="335" y="195" width="20" height="150" as="geometry" />
        </mxCell>
        <mxCell id="C86tbTPObmx0UTZUsj4c-8" value="消息体" style="text;html=1;strokeColor=none;fillColor=none;align=center;verticalAlign=middle;whiteSpace=wrap;rounded=0;" vertex="1" parent="1">
          <mxGeometry x="285" y="300" width="120" height="20" as="geometry" />
        </mxCell>
      </root>
    </mxGraphModel>
  </diagram>
</mxfile>
